<svg width="1032" height="1013" viewBox="0 0 1032 1013" fill="none" xmlns="http://www.w3.org/2000/svg">
<path d="M410.379 604.94L456.283 559.436V720.799L304.177 668.984V600.893L236.242 585.607C234.913 585.308 233.639 584.719 232.659 583.773C229.82 581.035 229.828 576.809 232.117 574.085L290.884 504.141L278.432 493.646C274.389 490.238 276.27 483.653 281.504 482.895L398.706 465.918C400.228 465.697 401.778 466.057 403.047 466.926L443.921 494.911L302.536 512.292L250.448 574.286L311.573 588.039L403.98 606.851C406.299 607.322 408.699 606.606 410.379 604.94ZM464.851 506.608L354.065 520.228L463.683 534.627L574.431 520.079L464.851 506.608ZM692.861 573.883L636.152 506.388L651.27 493.646C655.313 490.238 653.432 483.653 648.198 482.895L530.997 465.918C529.475 465.697 527.925 466.057 526.656 466.926L485.782 494.911L622.088 511.667L674.699 574.286L612.453 588.291C611.709 588.459 611.039 588.765 610.417 589.134L523.386 606.851C521.068 607.322 518.668 606.606 516.988 604.94L471.084 559.436V720.799L623.19 668.984V600.393L689.163 585.55C692.634 584.768 695.2 581.411 694.601 577.513C694.393 576.167 693.737 574.926 692.861 573.883Z" fill="#04202E"/>
<path fill-rule="evenodd" clip-rule="evenodd" d="M551.59 268.827C555.238 267.768 558.846 267.319 562.324 267.234C564.873 267.176 566.994 267.565 568.675 268.253C570.661 269.066 572.058 270.309 572.845 271.735C573.154 272.291 573.363 272.883 573.474 273.482C573.588 274.096 573.599 274.721 573.511 275.324C573.419 275.95 573.205 276.567 572.882 277.156C572.569 277.711 572.157 278.24 571.654 278.711C569.896 280.355 567.123 281.502 563.247 281.727C560.015 281.918 555.974 281.473 551.064 280.145C549.09 279.609 547.244 279.013 545.527 278.358C543.828 277.711 542.235 276.994 540.761 276.222L538.93 275.262L540.625 274.082C544.243 271.559 547.931 269.886 551.59 268.827ZM480.204 234.282H494.28V220.206H480.204V234.282ZM475.846 173.497L510.537 195.855V231.047C510.537 238.438 510.795 245.303 511.692 251.613C512.582 257.879 514.101 263.623 516.623 268.816C517.149 269.897 517.723 270.967 518.348 272.015C518.969 273.067 519.631 274.074 520.323 275.034L520.863 275.78L520.304 276.52C518.797 278.505 517.3 280.679 515.84 283.05C514.38 285.419 512.957 287.971 511.578 290.718C505.036 303.746 499.391 321.533 495.313 345.715C491.221 369.97 488.702 400.627 488.422 439.323L488.415 440.548L487.194 440.57C483.197 440.651 479.185 440.695 475.169 440.698C471.158 440.702 467.142 440.662 463.145 440.588L461.924 440.566L461.913 439.342C461.633 400.638 459.118 369.977 455.025 345.718C450.944 321.533 445.303 303.746 438.757 290.718C437.378 287.971 435.955 285.419 434.495 283.05C433.035 280.679 431.542 278.505 430.031 276.52L429.468 275.777L430.013 275.027C430.715 274.052 431.377 273.044 431.987 272.015C432.612 270.967 433.19 269.901 433.716 268.816C436.234 263.623 437.757 257.88 438.647 251.617C439.54 245.307 439.798 238.442 439.798 231.047V195.855C451.58 188.243 463.376 180.657 475.169 173.06L475.846 173.497ZM456.055 234.282H470.132V220.206H456.055V234.282ZM456.055 210.137H470.132V196.061H456.055V210.137ZM480.204 210.137H494.28V196.061H480.204V210.137ZM563.806 215.286L475.169 158.163L439.798 180.959V164.716H427.247V189.045L386.529 215.286L393.291 225.825L427.247 203.945V231.047C427.247 237.526 427.045 243.512 426.354 248.929C425.655 254.39 424.445 259.236 422.437 263.373L421.948 264.337L420.683 266.528L419.558 265.628C414.465 261.553 409.199 258.891 403.941 257.221C398.675 255.544 393.402 254.86 388.305 254.735C383.157 254.61 378.781 255.64 375.232 257.438C371.316 259.417 368.396 262.336 366.558 265.657C365.565 267.444 364.884 269.353 364.528 271.291C364.167 273.236 364.131 275.229 364.425 277.185C364.726 279.186 365.362 281.134 366.341 282.962C367.286 284.727 368.554 286.393 370.15 287.879C373.324 290.842 377.847 293.082 383.723 293.902C388.923 294.623 395.189 294.233 402.507 292.247C405.871 291.339 408.938 290.28 411.737 289.081C414.524 287.89 417.043 286.551 419.315 285.084L420.305 284.448L421.003 285.4C422.151 286.963 423.272 288.651 424.364 290.453C425.46 292.269 426.538 294.222 427.582 296.303C433.745 308.578 439.055 325.53 442.887 348.785C446.707 371.963 449.068 401.447 449.351 438.856L449.362 440.173L448.046 440.114C440.291 439.775 432.579 439.286 424.916 438.658C417.252 438.029 409.56 437.245 401.852 436.315L400.741 436.179V428.788C400.741 418.4 399.936 408.364 398.311 398.656C396.686 388.93 394.236 379.52 390.964 370.396C387.695 361.288 383.605 352.481 378.678 343.95C373.754 335.422 367.988 327.155 361.373 319.121C356 312.597 351.176 305.603 346.976 298.223C342.832 290.934 339.287 283.249 336.419 275.24C333.613 267.404 331.447 259.247 330.002 250.852C328.586 242.63 327.847 234.169 327.847 225.523C327.847 205.578 331.815 186.548 339.008 169.188C346.476 151.154 357.42 134.926 370.996 121.354C384.569 107.777 400.797 96.8336 418.834 89.3651C436.19 82.1724 455.224 78.2046 475.169 78.2046C495.115 78.2046 514.145 82.1724 531.501 89.3651C549.538 96.8336 565.766 107.777 579.339 121.354C592.915 134.926 603.855 151.154 611.327 169.188C618.52 186.548 622.488 205.578 622.488 225.523C622.488 234.169 621.749 242.63 620.333 250.852C618.888 259.247 616.722 267.404 613.916 275.24C611.044 283.249 607.499 290.934 603.355 298.227C599.156 305.61 594.335 312.601 588.962 319.121C582.347 327.152 576.581 335.422 571.657 343.95C566.733 352.481 562.641 361.288 559.371 370.396C556.099 379.52 553.653 388.934 552.024 398.656C550.399 408.368 549.59 418.4 549.59 428.791V436.172L548.483 436.301C540.753 437.216 533.035 437.992 525.342 438.621C517.708 439.246 510.023 439.735 502.289 440.081L500.976 440.14L500.988 438.827C501.271 401.422 503.631 371.948 507.448 348.778C511.28 325.527 516.59 308.578 522.75 296.303C523.82 294.182 524.893 292.233 525.971 290.453C527.063 288.651 528.188 286.963 529.332 285.4L530.031 284.448L531.016 285.084C533.292 286.551 535.815 287.89 538.599 289.085C541.393 290.28 544.464 291.339 547.828 292.247C555.15 294.233 561.409 294.623 566.612 293.902C572.488 293.082 577.015 290.842 580.185 287.879C581.781 286.389 583.049 284.727 583.994 282.966C584.973 281.138 585.609 279.182 585.91 277.185C586.204 275.225 586.168 273.236 585.807 271.291C585.451 269.353 584.77 267.444 583.777 265.657C581.939 262.336 579.023 259.417 575.103 257.438C571.554 255.64 567.178 254.61 562.03 254.735C556.933 254.86 551.657 255.544 546.394 257.221C541.14 258.891 535.874 261.553 530.777 265.628L529.648 266.528L528.387 264.337L527.898 263.373C525.89 259.236 524.68 254.39 523.981 248.929C523.286 243.512 523.088 237.526 523.088 231.047V203.945L557.044 225.825L563.806 215.286ZM398.741 268.827C402.404 269.886 406.092 271.559 409.714 274.082L411.406 275.262L409.574 276.222C408.1 276.994 406.511 277.711 404.809 278.358C403.091 279.013 401.249 279.609 399.278 280.145C394.361 281.473 390.32 281.918 387.095 281.727C383.212 281.502 380.439 280.355 378.682 278.711C378.178 278.24 377.766 277.715 377.457 277.156C377.13 276.567 376.92 275.95 376.828 275.324C376.736 274.721 376.747 274.096 376.861 273.482C376.972 272.883 377.181 272.291 377.49 271.735C378.281 270.309 379.674 269.066 381.66 268.253C383.341 267.565 385.462 267.176 388.011 267.234C391.49 267.319 395.097 267.768 398.741 268.827Z" fill="#F4D107"/>
<path d="M475.169 64.4C519.657 64.4 559.941 82.4369 589.098 111.594C618.255 140.751 636.293 181.036 636.293 225.523C636.293 244.535 632.965 262.84 626.857 279.88C620.539 297.502 611.247 313.7 599.586 327.858C587.366 342.695 578.302 358.339 572.312 375.033C566.34 391.684 563.398 409.519 563.398 428.791V448.27L556.805 449.119C529.604 452.631 502.385 454.426 475.169 454.448C447.928 454.466 420.702 452.712 393.497 449.119L386.937 448.255V428.788C386.937 409.519 383.995 391.684 378.023 375.033C372.033 358.339 362.969 342.692 350.749 327.858C339.088 313.7 329.792 297.502 323.479 279.88C317.371 262.84 314.043 244.535 314.043 225.523C314.043 181.036 332.08 140.751 361.237 111.594C390.394 82.4369 430.678 64.4 475.169 64.4ZM578.453 122.24C552.024 95.8075 515.505 79.4585 475.169 79.4585C434.83 79.4585 398.315 95.8075 371.882 122.24C345.454 148.668 329.101 185.187 329.101 225.523C329.101 242.887 332.098 259.483 337.596 274.821C343.317 290.78 351.749 305.471 362.336 318.326C375.652 334.492 385.554 351.617 392.14 369.973C398.745 388.382 401.999 407.897 401.999 428.788V435.068C426.401 438.018 450.793 439.463 475.169 439.448C499.546 439.43 523.941 437.951 548.336 435.057V428.791C548.336 407.897 551.59 388.382 558.195 369.973C564.781 351.617 574.684 334.488 587.995 318.326C598.582 305.471 607.018 290.78 612.74 274.821C618.237 259.483 621.234 242.887 621.234 225.523C621.234 185.187 604.885 148.668 578.453 122.24Z" fill="#04202E"/>
<path d="M395.233 458.46C421.794 461.181 448.369 462.567 474.949 462.578C501.532 462.589 528.254 461.229 555.102 458.46L556.628 473.4C529.391 476.213 502.161 477.593 474.949 477.581C447.733 477.567 420.65 476.162 393.703 473.4L395.233 458.46Z" fill="#04202E"/>
<path d="M409.754 482.715C431.454 484.833 453.187 485.94 474.949 485.958C496.7 485.98 518.565 484.921 540.547 482.715L542.018 497.655C519.631 499.902 497.27 500.983 474.949 500.958C452.642 500.935 430.439 499.81 408.346 497.655L409.754 482.715Z" fill="#04202E"/>
<path d="M448.131 446.593C448.131 367.131 439.103 322.033 426.464 296.862C424.394 292.74 422.228 289.191 419.992 286.139C415.326 289.154 409.674 291.607 402.83 293.46C386.735 297.818 375.567 294.648 369.297 288.794C365.833 285.565 363.814 281.546 363.186 277.372C362.557 273.202 363.34 268.885 365.466 265.046C369.176 258.35 376.975 253.209 388.331 253.485C398.737 253.739 409.891 256.294 420.338 264.653C420.683 264.057 421.007 263.45 421.312 262.829C425.206 254.812 425.993 243.953 425.993 231.046V163.462H441.052V231.046C441.052 245.917 440.011 258.714 434.841 269.36C433.741 271.617 432.48 273.75 431.028 275.762C434.113 279.821 437.077 284.583 439.875 290.158C453.477 317.241 463.189 364.579 463.189 446.593H448.131ZM408.997 275.111C401.981 270.224 394.748 268.654 387.981 268.484C382.969 268.363 379.833 270.088 378.582 272.342C378.101 273.213 377.924 274.195 378.068 275.14C378.207 276.078 378.693 277.012 379.535 277.795C382.451 280.516 388.687 281.711 398.951 278.931C402.83 277.88 406.154 276.604 408.997 275.111Z" fill="#04202E"/>
<path d="M487.146 446.593C487.146 364.579 496.858 317.241 510.456 290.158C513.255 284.583 516.222 279.821 519.308 275.762C517.855 273.75 516.59 271.617 515.494 269.36C510.324 258.714 509.283 245.917 509.283 231.046V194.064H524.346V231.046C524.346 243.953 525.129 254.812 529.027 262.829C529.325 263.45 529.652 264.057 529.997 264.653C540.448 256.294 551.598 253.739 562.001 253.485C573.36 253.209 581.159 258.35 584.87 265.046C586.995 268.889 587.778 273.202 587.149 277.372C586.521 281.546 584.506 285.565 581.038 288.794C574.768 294.648 563.6 297.818 547.505 293.46C540.658 291.607 535.01 289.154 530.343 286.139C528.107 289.191 525.941 292.74 523.871 296.862C511.232 322.033 502.208 367.131 502.208 446.593H487.146ZM562.354 268.484C555.588 268.654 548.354 270.22 541.338 275.111C544.184 276.604 547.505 277.88 551.388 278.931C561.651 281.711 567.884 280.516 570.8 277.795C571.642 277.012 572.128 276.078 572.268 275.14C572.411 274.195 572.235 273.213 571.753 272.342C570.503 270.088 567.362 268.363 562.354 268.484Z" fill="#04202E"/>
<path d="M384.801 214.911L475.169 156.674L565.535 214.911L557.419 227.561L475.169 174.549L392.916 227.561L384.801 214.911Z" fill="#04202E"/>
<path fill-rule="evenodd" clip-rule="evenodd" d="M454.801 194.803H471.389V211.391H454.801V194.803ZM478.946 194.803H495.534V211.391H478.946V194.803ZM495.534 218.952V235.54H478.946V218.952H495.534ZM471.389 235.54H454.801V218.952H471.389V235.54Z" fill="#04202E"/>
<path d="M439.842 507.724C451.712 508.36 463.472 508.687 475.118 508.698C486.775 508.706 498.579 508.397 510.523 507.761L511.291 522.76C499.336 523.396 487.279 523.709 475.118 523.698C462.954 523.691 450.936 523.36 439.073 522.724L439.842 507.724Z" fill="#04202E"/>
<path d="M467.638 47.4404V9.91821e-05H482.697V47.4404H467.638Z" fill="#04202E"/>
<path d="M379.605 75.064L355.886 33.9815L368.929 26.4504L392.648 67.5329L379.605 75.064Z" fill="#04202E"/>
<path d="M317.176 143.005L276.093 119.283L283.624 106.243L324.707 129.962L317.176 143.005Z" fill="#04202E"/>
<path d="M297.083 233.054H249.646V217.996H297.083V233.054Z" fill="#04202E"/>
<path d="M324.707 321.088L283.624 344.806L276.093 331.763L317.176 308.045L324.707 321.088Z" fill="#04202E"/>
<path d="M557.687 67.5329L581.409 26.4504L594.449 33.9815L570.731 75.064L557.687 67.5329Z" fill="#04202E"/>
<path d="M625.628 129.962L666.711 106.243L674.242 119.283L633.159 143.005L625.628 129.962Z" fill="#04202E"/>
<path d="M653.252 217.996H700.689V233.054H653.252V217.996Z" fill="#04202E"/>
<path d="M633.159 308.045L674.242 331.763L666.711 344.806L625.628 321.088L633.159 308.045Z" fill="#04202E"/>
<path d="M70.4103 884.621H0V780.206H69.5266C77.5186 780.206 84.3194 782.627 89.9292 787.468C95.539 792.309 98.3439 798.438 98.3439 805.854C98.3439 818.648 92.5164 826.749 80.8614 830.156V830.752C94.1045 833.761 100.726 842.452 100.726 856.822C100.726 865.031 97.8187 871.717 92.0041 876.879C86.2022 882.04 79.0042 884.621 70.4103 884.621ZM33.5049 842.452V860.318H58.9986C61.1759 860.318 63.0138 859.537 64.5123 857.974C66.0237 856.425 66.7793 854.484 66.7793 852.153V850.597C66.7793 848.33 66.0237 846.409 64.5123 844.834C63.0138 843.246 61.1759 842.452 58.9986 842.452H33.5049ZM33.5049 803.106V820.896H56.5588C58.7233 820.896 60.5612 820.089 62.0725 818.476C63.5838 816.875 64.3394 814.934 64.3394 812.654V811.175C64.3394 809.011 63.571 807.121 62.0341 805.508C60.4971 803.907 58.672 803.106 56.5588 803.106H33.5049ZM124.279 875.803C116.275 868.682 112.272 858.256 112.272 844.526C112.272 830.797 116.275 820.384 124.279 813.288C132.284 806.206 143.305 802.664 157.342 802.664C171.367 802.664 182.407 806.206 190.463 813.288C198.519 820.384 202.547 830.797 202.547 844.526C202.547 858.256 198.519 868.682 190.463 875.803C182.407 882.911 171.367 886.465 157.342 886.465C143.305 886.465 132.284 882.911 124.279 875.803ZM142.434 840.3V848.983C142.434 860.293 147.404 865.947 157.342 865.947C167.371 865.947 172.385 860.293 172.385 848.983V840.3C172.385 828.888 167.371 823.182 157.342 823.182C147.404 823.182 142.434 828.888 142.434 840.3ZM236.859 884.621H203.277L234.112 842.163L206.313 804.509H241.816L254.572 825.699H255.225L267.982 804.509H301.333L273.092 842.893L303.177 884.621H267.982L252.785 859.415H252.19L236.859 884.621ZM360.908 849.272H392.626C392.626 854.51 393.997 858.019 396.737 859.8C399.478 861.58 403.718 862.47 409.456 862.47C411.377 862.47 413.029 862.406 414.412 862.278C415.795 862.15 417.326 861.881 419.004 861.471C420.681 861.048 421.969 860.331 422.865 859.319C423.749 858.307 424.191 857.033 424.191 855.496C424.191 853.921 423.486 852.55 422.077 851.385C420.669 850.219 418.78 849.278 416.41 848.561C414.041 847.844 411.313 847.165 408.226 846.524C405.139 845.884 401.893 845.18 398.486 844.411C395.079 843.655 391.678 842.778 388.284 841.779C384.903 840.793 381.669 839.474 378.583 837.822C375.496 836.169 372.768 834.229 370.398 832C368.029 829.785 366.14 826.948 364.731 823.49C363.322 820.032 362.618 816.125 362.618 811.771C362.618 805.892 363.873 800.756 366.383 796.363C368.906 791.957 372.377 788.473 376.796 785.912C381.227 783.338 386.171 781.436 391.627 780.206C397.083 778.964 403.026 778.343 409.456 778.343C415.872 778.343 421.809 778.989 427.265 780.283C432.733 781.564 437.575 783.491 441.789 786.066C446.015 788.627 449.351 791.996 451.798 796.171C454.244 800.346 455.518 805.149 455.621 810.58V812.366H424.191V811.771C424.191 808.761 423.083 806.244 420.867 804.221C418.639 802.197 415.251 801.185 410.704 801.185C406.311 801.185 402.904 801.838 400.484 803.145C398.063 804.451 396.853 806.065 396.853 807.986C396.853 809.625 397.544 811.047 398.928 812.251C400.311 813.468 402.187 814.447 404.557 815.19C406.926 815.92 409.628 816.599 412.664 817.227C415.712 817.842 418.927 818.508 422.308 819.225C425.689 819.942 429.07 820.768 432.452 821.703C435.846 822.638 439.086 823.887 442.173 825.449C445.259 826.999 448 828.811 450.395 830.886C452.79 832.961 454.718 835.631 456.178 838.897C457.625 842.163 458.4 845.871 458.503 850.021C458.503 855.106 457.741 859.684 456.216 863.757C454.679 867.83 452.566 871.262 449.877 874.054C447.187 876.847 443.902 879.184 440.021 881.067C436.14 882.937 431.914 884.307 427.341 885.178C422.769 886.036 417.819 886.465 412.491 886.465C406.318 886.465 400.772 886.132 395.854 885.466C390.936 884.8 386.242 883.615 381.772 881.912C377.302 880.209 373.568 877.974 370.571 875.207C367.587 872.441 365.231 868.874 363.502 864.506C361.772 860.126 360.908 855.048 360.908 849.272ZM481.403 875.803C473.398 868.682 469.396 858.256 469.396 844.526C469.396 830.797 473.398 820.384 481.403 813.288C489.408 806.206 500.429 802.664 514.466 802.664C528.49 802.664 539.53 806.206 547.587 813.288C555.643 820.384 559.671 830.797 559.671 844.526C559.671 858.256 555.643 868.682 547.587 875.803C539.53 882.911 528.49 886.465 514.466 886.465C500.429 886.465 489.408 882.911 481.403 875.803ZM499.558 840.3V848.983C499.558 860.293 504.527 865.947 514.466 865.947C524.494 865.947 529.508 860.293 529.508 848.983V840.3C529.508 828.888 524.494 823.182 514.466 823.182C504.527 823.182 499.558 828.888 499.558 840.3ZM582.628 875.803C574.624 868.682 570.621 858.256 570.621 844.526C570.621 830.797 574.624 820.384 582.628 813.288C590.633 806.206 601.654 802.664 615.691 802.664C622.018 802.664 627.775 803.305 632.963 804.586C638.15 805.866 642.792 807.845 646.891 810.522C650.989 813.186 654.172 816.753 656.439 821.223C658.719 825.693 659.859 830.893 659.859 836.823H630.58C630.58 827.729 625.617 823.182 615.691 823.182C605.753 823.182 600.783 828.888 600.783 840.3V848.983C600.783 860.293 605.951 865.947 616.287 865.947C626.61 865.947 631.771 861.304 631.771 852.019H659.859C659.859 857.949 658.719 863.162 656.439 867.657C654.172 872.153 651.002 875.745 646.929 878.435C642.844 881.124 638.188 883.135 632.963 884.467C627.724 885.799 621.967 886.465 615.691 886.465C601.654 886.465 590.633 882.911 582.628 875.803ZM706.773 884.621H676.534V804.509H706.773V884.621ZM706.773 795.095H676.534V774.577H706.773V795.095ZM721.355 863.949C721.355 859.198 722.187 855.131 723.852 851.75C725.505 848.369 727.791 845.628 730.711 843.527C733.618 841.427 737.467 839.775 742.257 838.571C747.047 837.354 752.125 836.522 757.492 836.073C762.845 835.638 769.281 835.42 776.799 835.42V831.482C776.799 828.369 775.711 826 773.533 824.373C771.356 822.747 768.538 821.934 765.08 821.934C761.968 821.934 759.278 822.484 757.011 823.586C754.732 824.7 753.592 826.468 753.592 828.888V829.561H723.814C723.711 829.061 723.66 828.344 723.66 827.409C723.66 819.852 727.278 813.839 734.515 809.369C741.751 804.899 752.087 802.664 765.522 802.664C771.311 802.664 776.588 803.106 781.352 803.99C786.117 804.887 790.478 806.308 794.436 808.255C798.38 810.202 801.467 812.917 803.695 816.401C805.924 819.884 807.038 824.002 807.038 828.754V860.011C807.038 861.791 807.442 863.226 808.249 864.314C809.068 865.403 810.266 865.947 811.841 865.947H817.336V883.43C816.887 883.686 816.266 883.974 815.472 884.294C814.691 884.614 812.93 885.056 810.189 885.62C807.448 886.183 804.566 886.465 801.544 886.465C795.614 886.465 790.773 885.581 787.02 883.814C783.267 882.034 780.674 879.562 779.239 876.398C770.837 883.11 760.956 886.465 749.596 886.465C730.768 886.465 721.355 878.96 721.355 863.949ZM751.594 860.011C751.594 865.108 755.026 867.657 761.891 867.657C765.849 867.657 769.32 866.594 772.304 864.468C775.301 862.342 776.799 859.697 776.799 856.534V849.713C768.244 849.713 761.904 850.642 757.78 852.499C753.656 854.343 751.594 856.847 751.594 860.011ZM858.468 884.621H828.229V774.577H858.468V884.621ZM873.433 858.532H901.444V859.127C901.495 860.959 901.988 862.515 902.923 863.796C903.858 865.076 905.068 866.03 906.554 866.658C908.04 867.273 909.449 867.715 910.781 867.984C912.113 868.253 913.419 868.387 914.7 868.387C923.102 868.387 927.303 866.415 927.303 862.47C927.303 860.882 926.355 859.582 924.459 858.57C922.551 857.558 920.079 856.783 917.044 856.245C914.008 855.695 910.646 855.138 906.958 854.574C903.282 853.998 899.593 853.184 895.892 852.134C892.177 851.071 888.803 849.707 885.767 848.042C882.732 846.39 880.26 844.02 878.352 840.934C876.456 837.847 875.508 834.152 875.508 829.849C875.508 825.75 876.238 822.106 877.698 818.917C879.146 815.741 881.092 813.148 883.539 811.137C885.985 809.139 888.963 807.487 892.472 806.18C895.981 804.874 899.625 803.958 903.403 803.433C907.182 802.921 911.293 802.664 915.737 802.664C920.732 802.664 925.426 803.132 929.819 804.067C934.225 805.002 938.292 806.449 942.019 808.409C945.746 810.355 948.698 813.045 950.875 816.478C953.052 819.91 954.141 823.9 954.141 828.446H926.054C926.054 825.488 924.741 823.413 922.115 822.222C920.335 821.236 918.062 820.742 915.295 820.742C907.982 820.742 904.326 822.446 904.326 825.853C904.326 827.39 905.28 828.613 907.188 829.522C909.084 830.431 911.555 831.136 914.604 831.635C917.639 832.135 920.995 832.628 924.671 833.115C928.359 833.614 932.054 834.383 935.756 835.42C939.457 836.458 942.832 837.802 945.88 839.455C948.916 841.107 951.381 843.515 953.277 846.678C955.185 849.842 956.139 853.645 956.139 858.09C956.139 862.393 955.396 866.197 953.911 869.501C952.425 872.819 950.44 875.521 947.955 877.609C945.457 879.709 942.403 881.438 938.791 882.796C935.192 884.166 931.427 885.12 927.495 885.658C923.563 886.196 919.298 886.465 914.7 886.465C909.474 886.465 904.486 885.94 899.734 884.89C894.995 883.827 890.628 882.219 886.632 880.068C882.623 877.916 879.421 874.989 877.026 871.288C874.631 867.574 873.433 863.322 873.433 858.532Z" fill="#04202E"/>
<path d="M17.6421 998V959.43H1.71421V948.931H46.3551V959.43H30.4272V998H17.6421ZM52.6266 998V946.288H64.3403V964.43H64.8403C65.6498 963.43 66.6259 962.573 67.7687 961.859C68.9592 961.097 70.2686 960.525 71.6971 960.145C73.1256 959.716 74.6018 959.502 76.1255 959.502C78.8397 959.502 81.1253 960.002 82.9823 961.002C84.887 962.002 86.3393 963.502 87.3393 965.501C88.3392 967.501 88.8392 970.049 88.8392 973.144V998H77.1255V974.787C77.1255 973.739 76.9826 972.858 76.6969 972.144C76.4588 971.382 76.1017 970.739 75.6255 970.216C75.1494 969.692 74.5541 969.311 73.8399 969.073C73.1256 968.835 72.3161 968.716 71.4114 968.716C70.0305 968.716 68.8163 969.049 67.7687 969.716C66.7212 970.335 65.8879 971.192 65.2688 972.287C64.6498 973.334 64.3403 974.572 64.3403 976.001V998H52.6266ZM97.5464 955.288V946.288H109.26V955.288H97.5464ZM97.5464 998V960.359H109.26V998H97.5464ZM118.123 998V960.359H127.765L128.623 965.716H129.123C130.075 964.43 131.17 963.311 132.408 962.359C133.646 961.406 135.051 960.692 136.622 960.216C138.194 959.74 139.86 959.502 141.622 959.502C144.336 959.502 146.622 960.002 148.479 961.002C150.384 962.002 151.836 963.502 152.836 965.501C153.836 967.501 154.336 970.049 154.336 973.144V998H142.622V974.787C142.622 973.739 142.479 972.858 142.193 972.144C141.955 971.382 141.598 970.739 141.122 970.216C140.646 969.692 140.051 969.311 139.336 969.073C138.622 968.835 137.813 968.716 136.908 968.716C135.527 968.716 134.313 969.049 133.265 969.716C132.218 970.335 131.384 971.192 130.765 972.287C130.146 973.334 129.837 974.572 129.837 976.001V998H118.123ZM163.043 998V946.217H174.757V975.501L187.47 960.359H201.184L187.828 975.287L201.684 998H188.328L179.971 983.358L174.757 988.429V998H163.043ZM206.638 955.288V946.288H218.351V955.288H206.638ZM206.638 998V960.359H218.351V998H206.638ZM227.214 998V960.359H236.857L237.714 965.716H238.214C239.166 964.43 240.261 963.311 241.499 962.359C242.737 961.406 244.142 960.692 245.713 960.216C247.285 959.74 248.951 959.502 250.713 959.502C253.427 959.502 255.713 960.002 257.57 961.002C259.475 962.002 260.927 963.502 261.927 965.501C262.927 967.501 263.427 970.049 263.427 973.144V998H251.713V974.787C251.713 973.739 251.57 972.858 251.285 972.144C251.046 971.382 250.689 970.739 250.213 970.216C249.737 969.692 249.142 969.311 248.428 969.073C247.713 968.835 246.904 968.716 245.999 968.716C244.618 968.716 243.404 969.049 242.356 969.716C241.309 970.335 240.475 971.192 239.856 972.287C239.237 973.334 238.928 974.572 238.928 976.001V998H227.214ZM278.205 1012.07C276.539 1012.07 274.967 1011.69 273.491 1010.93C272.015 1010.21 270.825 1009.17 269.92 1007.79C269.063 1006.45 268.634 1004.88 268.634 1003.07C268.634 1001.07 269.229 999.381 270.42 998C271.658 996.667 273.039 995.667 274.562 995C273.467 994.286 272.563 993.405 271.848 992.357C271.182 991.262 270.848 990.048 270.848 988.715C270.848 986.858 271.539 985.286 272.92 984.001C274.301 982.715 275.92 981.858 277.777 981.429C276.062 980.334 274.658 978.977 273.563 977.358C272.515 975.739 271.991 973.93 271.991 971.93C271.991 969.025 272.753 966.668 274.277 964.859C275.848 963.049 277.991 961.716 280.705 960.859C283.419 959.954 286.514 959.502 289.99 959.502C291.371 959.502 292.609 959.573 293.704 959.716C294.847 959.811 295.871 959.978 296.776 960.216C298.68 959.073 299.99 957.883 300.704 956.645C301.418 955.407 301.799 954.407 301.847 953.645H312.061C312.061 955.55 311.728 957.168 311.061 958.502C310.394 959.787 309.442 960.835 308.204 961.644C306.966 962.454 305.49 963.073 303.775 963.502C305.061 964.549 306.061 965.811 306.775 967.287C307.49 968.716 307.847 970.263 307.847 971.93C307.847 974.644 307.156 976.93 305.775 978.787C304.442 980.596 302.585 981.977 300.204 982.929C297.823 983.882 295.085 984.358 291.99 984.358H286.419C285.086 984.358 284.086 984.572 283.419 985.001C282.8 985.382 282.491 985.905 282.491 986.572C282.491 987.191 282.776 987.739 283.348 988.215C283.919 988.643 284.895 988.858 286.276 988.858H300.776C304.442 988.858 307.252 989.905 309.204 992C311.156 994.048 312.132 996.667 312.132 999.857C312.132 1002.29 311.466 1004.4 310.132 1006.21C308.799 1008.07 307.013 1009.5 304.775 1010.5C302.585 1011.55 300.133 1012.07 297.419 1012.07H278.205ZM283.848 1004.93H296.204C297.014 1004.93 297.728 1004.76 298.347 1004.43C298.966 1004.14 299.442 1003.71 299.776 1003.14C300.157 1002.62 300.347 1002 300.347 1001.29C300.347 1000.1 299.966 999.19 299.204 998.571C298.442 997.952 297.514 997.643 296.419 997.643H283.848C282.753 997.643 281.824 997.952 281.062 998.571C280.348 999.238 279.991 1000.12 279.991 1001.21C279.991 1002.31 280.348 1003.19 281.062 1003.86C281.824 1004.57 282.753 1004.93 283.848 1004.93ZM289.919 977.501C291.966 977.501 293.538 977.025 294.633 976.072C295.776 975.12 296.347 973.739 296.347 971.93C296.347 970.073 295.776 968.692 294.633 967.787C293.538 966.835 291.966 966.359 289.919 966.359C287.967 966.359 286.419 966.835 285.276 967.787C284.133 968.692 283.562 970.073 283.562 971.93C283.562 973.12 283.8 974.144 284.276 975.001C284.753 975.811 285.467 976.43 286.419 976.858C287.371 977.287 288.538 977.501 289.919 977.501ZM349.008 998.857C344.818 998.857 341.223 998.143 338.223 996.714C335.271 995.286 332.985 993.119 331.366 990.215C329.795 987.262 329.009 983.572 329.009 979.144C329.009 974.715 329.795 971.049 331.366 968.144C332.985 965.24 335.271 963.073 338.223 961.644C341.223 960.216 344.818 959.502 349.008 959.502C353.246 959.502 356.841 960.216 359.794 961.644C362.793 963.073 365.079 965.24 366.65 968.144C368.269 971.049 369.079 974.715 369.079 979.144C369.079 983.572 368.269 987.262 366.65 990.215C365.079 993.119 362.793 995.286 359.794 996.714C356.841 998.143 353.246 998.857 349.008 998.857ZM349.008 990.357C350.961 990.357 352.532 989.977 353.722 989.215C354.961 988.453 355.841 987.358 356.365 985.929C356.937 984.453 357.222 982.644 357.222 980.501V977.858C357.222 975.715 356.937 973.906 356.365 972.43C355.841 970.954 354.961 969.858 353.722 969.144C352.532 968.382 350.961 968.001 349.008 968.001C347.104 968.001 345.532 968.382 344.294 969.144C343.104 969.858 342.223 970.954 341.652 972.43C341.128 973.906 340.866 975.715 340.866 977.858V980.501C340.866 982.644 341.128 984.453 341.652 985.929C342.223 987.358 343.104 988.453 344.294 989.215C345.532 989.977 347.104 990.357 349.008 990.357ZM388.633 998.857C384.585 998.857 381.443 997.738 379.205 995.5C377.014 993.262 375.919 989.834 375.919 985.215V960.359H387.633V983.572C387.633 984.572 387.752 985.453 387.99 986.215C388.276 986.977 388.657 987.62 389.133 988.143C389.609 988.667 390.204 989.048 390.918 989.286C391.68 989.524 392.49 989.643 393.347 989.643C394.728 989.643 395.942 989.334 396.989 988.715C398.037 988.048 398.87 987.167 399.489 986.072C400.108 984.929 400.418 983.691 400.418 982.358V960.359H412.132V998H402.489L401.775 992.643H401.275C400.418 993.881 399.323 994.976 397.989 995.929C396.704 996.881 395.251 997.595 393.632 998.071C392.061 998.595 390.395 998.857 388.633 998.857ZM434.267 998.857C431.838 998.857 429.767 998.5 428.053 997.786C426.386 997.024 425.124 995.905 424.267 994.429C423.458 992.953 423.053 991.167 423.053 989.072V968.858H418.125V960.359H423.41L425.839 949.359H434.695V960.359H442.052V968.858H434.695V986.215C434.695 987.548 434.957 988.572 435.481 989.286C436.005 990 436.957 990.357 438.338 990.357H442.052V997.643C441.433 997.833 440.648 998.024 439.695 998.214C438.79 998.452 437.862 998.619 436.91 998.714C435.957 998.809 435.076 998.857 434.267 998.857ZM464.677 998.857C462.201 998.857 459.868 998.595 457.678 998.071C455.535 997.548 453.63 996.786 451.964 995.786C450.345 994.786 449.059 993.548 448.107 992.072C447.202 990.596 446.75 988.881 446.75 986.929C446.75 986.739 446.75 986.572 446.75 986.429C446.75 986.239 446.773 986.072 446.821 985.929H457.892C457.892 986.024 457.892 986.143 457.892 986.286C457.892 986.381 457.892 986.477 457.892 986.572C457.94 987.62 458.273 988.5 458.892 989.215C459.559 989.881 460.416 990.381 461.463 990.715C462.511 991 463.654 991.143 464.892 991.143C465.796 991.143 466.749 991.048 467.749 990.857C468.796 990.667 469.677 990.334 470.391 989.858C471.106 989.381 471.463 988.691 471.463 987.786C471.463 986.786 471.01 986.024 470.106 985.501C469.249 984.977 468.082 984.548 466.606 984.215C465.177 983.834 463.63 983.477 461.963 983.144C460.297 982.763 458.606 982.334 456.892 981.858C455.225 981.382 453.678 980.739 452.249 979.929C450.868 979.072 449.749 977.977 448.892 976.644C448.035 975.311 447.607 973.62 447.607 971.573C447.607 969.382 448.059 967.525 448.964 966.001C449.916 964.43 451.202 963.168 452.821 962.216C454.44 961.264 456.297 960.573 458.392 960.145C460.535 959.716 462.796 959.502 465.177 959.502C467.368 959.502 469.439 959.716 471.391 960.145C473.391 960.573 475.177 961.24 476.748 962.144C478.367 963.002 479.629 964.121 480.534 965.501C481.438 966.835 481.891 968.406 481.891 970.216C481.891 970.454 481.867 970.716 481.819 971.001C481.819 971.239 481.819 971.406 481.819 971.501H470.82V970.93C470.82 970.12 470.558 969.454 470.034 968.93C469.51 968.406 468.796 968.001 467.891 967.716C466.987 967.382 465.987 967.216 464.892 967.216C464.177 967.216 463.463 967.287 462.749 967.43C462.082 967.525 461.463 967.692 460.892 967.93C460.32 968.12 459.844 968.406 459.463 968.787C459.13 969.168 458.963 969.644 458.963 970.216C458.963 970.93 459.273 971.525 459.892 972.001C460.511 972.43 461.344 972.787 462.392 973.073C463.487 973.358 464.677 973.668 465.963 974.001C467.725 974.382 469.582 974.787 471.534 975.215C473.486 975.596 475.32 976.168 477.034 976.93C478.796 977.644 480.2 978.739 481.248 980.215C482.343 981.644 482.891 983.62 482.891 986.143C482.891 988.524 482.415 990.548 481.462 992.215C480.51 993.834 479.2 995.143 477.534 996.143C475.867 997.095 473.939 997.786 471.748 998.214C469.558 998.643 467.201 998.857 464.677 998.857ZM489.898 955.288V946.288H501.611V955.288H489.898ZM489.898 998V960.359H501.611V998H489.898ZM524.188 998.857C520.998 998.857 518.236 998.143 515.903 996.714C513.569 995.286 511.784 993.119 510.546 990.215C509.308 987.31 508.689 983.596 508.689 979.072C508.689 974.644 509.308 971.001 510.546 968.144C511.831 965.24 513.617 963.073 515.903 961.644C518.188 960.216 520.879 959.502 523.974 959.502C525.45 959.502 526.855 959.668 528.188 960.002C529.569 960.335 530.783 960.859 531.831 961.573C532.926 962.287 533.854 963.168 534.616 964.216H535.045V946.288H546.758V998H537.187L536.33 992.786H535.83C534.545 994.833 532.902 996.357 530.902 997.357C528.902 998.357 526.664 998.857 524.188 998.857ZM527.831 989.715C529.545 989.715 530.926 989.334 531.973 988.572C533.069 987.762 533.854 986.643 534.33 985.215C534.854 983.739 535.116 982.025 535.116 980.072V978.358C535.116 976.93 534.973 975.62 534.688 974.43C534.402 973.239 533.973 972.215 533.402 971.358C532.831 970.501 532.069 969.835 531.116 969.358C530.212 968.882 529.116 968.644 527.831 968.644C526.069 968.644 524.64 969.001 523.545 969.716C522.498 970.43 521.736 971.477 521.26 972.858C520.783 974.239 520.545 975.953 520.545 978.001V980.501C520.545 982.501 520.783 984.191 521.26 985.572C521.736 986.953 522.498 988 523.545 988.715C524.64 989.381 526.069 989.715 527.831 989.715ZM574.101 998.857C569.815 998.857 566.173 998.167 563.173 996.786C560.173 995.357 557.864 993.191 556.245 990.286C554.673 987.381 553.888 983.667 553.888 979.144C553.888 974.715 554.673 971.049 556.245 968.144C557.816 965.24 560.078 963.073 563.03 961.644C565.982 960.216 569.53 959.502 573.672 959.502C577.767 959.502 581.22 960.192 584.029 961.573C586.886 962.954 589.053 965.073 590.529 967.93C592.005 970.787 592.743 974.477 592.743 979.001V981.501H565.744C565.744 983.501 566.03 985.191 566.601 986.572C567.173 987.953 568.054 989 569.244 989.715C570.434 990.429 572.03 990.786 574.03 990.786C575.22 990.786 576.268 990.643 577.172 990.357C578.077 990.072 578.839 989.667 579.458 989.143C580.077 988.572 580.553 987.905 580.886 987.143C581.22 986.381 581.386 985.524 581.386 984.572H592.743C592.743 986.858 592.314 988.905 591.457 990.715C590.648 992.476 589.434 993.976 587.815 995.214C586.196 996.405 584.22 997.31 581.886 997.929C579.601 998.548 577.006 998.857 574.101 998.857ZM565.816 975.001H580.815C580.815 973.763 580.648 972.692 580.315 971.787C580.029 970.835 579.577 970.049 578.958 969.43C578.387 968.811 577.672 968.358 576.815 968.073C576.006 967.739 575.053 967.573 573.958 967.573C572.244 967.573 570.815 967.858 569.673 968.43C568.53 969.001 567.649 969.835 567.03 970.93C566.411 972.025 566.006 973.382 565.816 975.001ZM631.641 998.857C627.451 998.857 623.855 998.143 620.856 996.714C617.903 995.286 615.618 993.119 613.999 990.215C612.427 987.262 611.642 983.572 611.642 979.144C611.642 974.715 612.427 971.049 613.999 968.144C615.618 965.24 617.903 963.073 620.856 961.644C623.855 960.216 627.451 959.502 631.641 959.502C635.879 959.502 639.474 960.216 642.426 961.644C645.426 963.073 647.712 965.24 649.283 968.144C650.902 971.049 651.711 974.715 651.711 979.144C651.711 983.572 650.902 987.262 649.283 990.215C647.712 993.119 645.426 995.286 642.426 996.714C639.474 998.143 635.879 998.857 631.641 998.857ZM631.641 990.357C633.593 990.357 635.164 989.977 636.355 989.215C637.593 988.453 638.474 987.358 638.998 985.929C639.569 984.453 639.855 982.644 639.855 980.501V977.858C639.855 975.715 639.569 973.906 638.998 972.43C638.474 970.954 637.593 969.858 636.355 969.144C635.164 968.382 633.593 968.001 631.641 968.001C629.736 968.001 628.165 968.382 626.927 969.144C625.736 969.858 624.855 970.954 624.284 972.43C623.76 973.906 623.498 975.715 623.498 977.858V980.501C623.498 982.644 623.76 984.453 624.284 985.929C624.855 987.358 625.736 988.453 626.927 989.215C628.165 989.977 629.736 990.357 631.641 990.357ZM660.48 998V968.858H655.123V960.359H660.48V957.288C660.48 954.669 660.908 952.502 661.766 950.788C662.67 949.026 664.004 947.717 665.765 946.859C667.527 946.002 669.694 945.574 672.265 945.574C672.979 945.574 673.765 945.621 674.622 945.717C675.479 945.812 676.313 945.955 677.122 946.145C677.979 946.336 678.67 946.526 679.193 946.717V954.073H675.765C674.432 954.073 673.479 954.359 672.908 954.93C672.384 955.502 672.122 956.383 672.122 957.573V960.359H679.193V968.858H672.122V998H660.48ZM710.622 998.857C708.193 998.857 706.122 998.5 704.408 997.786C702.741 997.024 701.479 995.905 700.622 994.429C699.813 992.953 699.408 991.167 699.408 989.072V968.858H694.48V960.359H699.765L702.193 949.359H711.05V960.359H718.407V968.858H711.05V986.215C711.05 987.548 711.312 988.572 711.836 989.286C712.36 990 713.312 990.357 714.693 990.357H718.407V997.643C717.788 997.833 717.002 998.024 716.05 998.214C715.145 998.452 714.217 998.619 713.264 998.714C712.312 998.809 711.431 998.857 710.622 998.857ZM724.89 998V946.288H736.604V964.43H737.104C737.913 963.43 738.889 962.573 740.032 961.859C741.223 961.097 742.532 960.525 743.961 960.145C745.389 959.716 746.865 959.502 748.389 959.502C751.103 959.502 753.389 960.002 755.246 961.002C757.15 962.002 758.603 963.502 759.603 965.501C760.603 967.501 761.103 970.049 761.103 973.144V998H749.389V974.787C749.389 973.739 749.246 972.858 748.96 972.144C748.722 971.382 748.365 970.739 747.889 970.216C747.413 969.692 746.818 969.311 746.103 969.073C745.389 968.835 744.58 968.716 743.675 968.716C742.294 968.716 741.08 969.049 740.032 969.716C738.985 970.335 738.151 971.192 737.532 972.287C736.913 973.334 736.604 974.572 736.604 976.001V998H724.89ZM788.238 998.857C783.952 998.857 780.309 998.167 777.31 996.786C774.31 995.357 772 993.191 770.381 990.286C768.81 987.381 768.024 983.667 768.024 979.144C768.024 974.715 768.81 971.049 770.381 968.144C771.953 965.24 774.214 963.073 777.167 961.644C780.119 960.216 783.666 959.502 787.809 959.502C791.904 959.502 795.356 960.192 798.166 961.573C801.023 962.954 803.189 965.073 804.665 967.93C806.142 970.787 806.88 974.477 806.88 979.001V981.501H779.881C779.881 983.501 780.167 985.191 780.738 986.572C781.309 987.953 782.19 989 783.381 989.715C784.571 990.429 786.166 990.786 788.166 990.786C789.357 990.786 790.404 990.643 791.309 990.357C792.214 990.072 792.975 989.667 793.594 989.143C794.214 988.572 794.69 987.905 795.023 987.143C795.356 986.381 795.523 985.524 795.523 984.572H806.88C806.88 986.858 806.451 988.905 805.594 990.715C804.784 992.476 803.57 993.976 801.951 995.214C800.332 996.405 798.356 997.31 796.023 997.929C793.737 998.548 791.142 998.857 788.238 998.857ZM779.952 975.001H794.952C794.952 973.763 794.785 972.692 794.452 971.787C794.166 970.835 793.714 970.049 793.095 969.43C792.523 968.811 791.809 968.358 790.952 968.073C790.142 967.739 789.19 967.573 788.095 967.573C786.381 967.573 784.952 967.858 783.809 968.43C782.666 969.001 781.785 969.835 781.166 970.93C780.547 972.025 780.143 973.382 779.952 975.001ZM850.206 998.857C847.777 998.857 845.539 998.357 843.492 997.357C841.444 996.357 839.802 994.833 838.564 992.786H838.064L837.206 998H827.635V946.288H839.349V964.216H839.778C840.54 963.216 841.444 962.359 842.492 961.644C843.587 960.93 844.801 960.406 846.135 960.073C847.468 959.692 848.896 959.502 850.42 959.502C853.515 959.502 856.206 960.216 858.491 961.644C860.777 963.073 862.539 965.24 863.777 968.144C865.015 971.001 865.634 974.644 865.634 979.072C865.634 983.596 865.015 987.31 863.777 990.215C862.539 993.119 860.753 995.286 858.42 996.714C856.134 998.143 853.396 998.857 850.206 998.857ZM846.563 989.715C848.325 989.715 849.73 989.381 850.777 988.715C851.872 988 852.658 986.953 853.134 985.572C853.61 984.191 853.849 982.501 853.849 980.501V978.001C853.849 975.953 853.61 974.239 853.134 972.858C852.658 971.477 851.872 970.43 850.777 969.716C849.73 969.001 848.325 968.644 846.563 968.644C845.277 968.644 844.158 968.882 843.206 969.358C842.301 969.835 841.54 970.501 840.921 971.358C840.349 972.215 839.921 973.239 839.635 974.43C839.397 975.62 839.278 976.93 839.278 978.358V980.072C839.278 982.025 839.516 983.739 839.992 985.215C840.516 986.643 841.301 987.762 842.349 988.572C843.444 989.334 844.849 989.715 846.563 989.715ZM890.976 998.857C886.786 998.857 883.191 998.143 880.191 996.714C877.239 995.286 874.953 993.119 873.334 990.215C871.763 987.262 870.977 983.572 870.977 979.144C870.977 974.715 871.763 971.049 873.334 968.144C874.953 965.24 877.239 963.073 880.191 961.644C883.191 960.216 886.786 959.502 890.976 959.502C895.214 959.502 898.809 960.216 901.762 961.644C904.761 963.073 907.047 965.24 908.618 968.144C910.237 971.049 911.047 974.715 911.047 979.144C911.047 983.572 910.237 987.262 908.618 990.215C907.047 993.119 904.761 995.286 901.762 996.714C898.809 998.143 895.214 998.857 890.976 998.857ZM890.976 990.357C892.929 990.357 894.5 989.977 895.69 989.215C896.928 988.453 897.809 987.358 898.333 985.929C898.905 984.453 899.19 982.644 899.19 980.501V977.858C899.19 975.715 898.905 973.906 898.333 972.43C897.809 970.954 896.928 969.858 895.69 969.144C894.5 968.382 892.929 968.001 890.976 968.001C889.072 968.001 887.5 968.382 886.262 969.144C885.072 969.858 884.191 970.954 883.62 972.43C883.096 973.906 882.834 975.715 882.834 977.858V980.501C882.834 982.644 883.096 984.453 883.62 985.929C884.191 987.358 885.072 988.453 886.262 989.215C887.5 989.977 889.072 990.357 890.976 990.357ZM911.801 998L925.801 978.287L913.016 960.359H926.872L933.515 971.073H933.872L940.586 960.359H953.657L940.729 978.358L954.442 998H940.729L933.015 985.643H932.658L924.872 998H911.801Z" fill="#0C0C0C"/>
<path d="M968.512 764V734.565H957.282V728.822H986.46V734.565H975.179V764H968.512ZM991.647 764V728.822H1002.16L1007.7 748.411C1007.9 749.095 1008.11 749.864 1008.31 750.719C1008.52 751.573 1008.71 752.394 1008.88 753.18C1009.08 753.966 1009.24 754.65 1009.34 755.231H1009.75C1009.82 754.718 1009.92 754.086 1010.06 753.334C1010.19 752.582 1010.35 751.778 1010.52 750.924C1010.72 750.035 1010.94 749.18 1011.18 748.36L1016.72 728.822H1027.13V764H1020.47V746.206C1020.47 744.633 1020.48 743.061 1020.52 741.488C1020.55 739.916 1020.59 738.565 1020.62 737.437C1020.69 736.309 1020.72 735.642 1020.72 735.437H1020.31C1020.24 735.745 1020.07 736.411 1019.8 737.437C1019.53 738.463 1019.24 739.574 1018.93 740.77C1018.62 741.967 1018.35 742.992 1018.11 743.847L1012.31 764H1006.16L1000.36 743.898C1000.16 743.18 999.92 742.326 999.646 741.334C999.407 740.309 999.151 739.266 998.877 738.206C998.638 737.146 998.416 736.223 998.21 735.437H997.8C997.834 736.36 997.869 737.471 997.903 738.77C997.937 740.035 997.971 741.334 998.005 742.668C998.04 743.967 998.057 745.146 998.057 746.206V764H991.647Z" fill="#0C0C0C"/>
</svg>
